<svg viewBox="335.9956 319.4874 573.9666 144.8251" width="5000" height="1261.6160940375275" xmlns="http://www.w3.org/2000/svg" xmlns:xlink="http://www.w3.org/1999/xlink" preserveAspectRatio="none"><defs></defs><style>.a5f1Tdx9g9fillColor {fill:#FFFFFF;fill-opacity:1;}.a5f1Tdx9g9strokeColor-str {stroke:#D9D9D9;stroke-opacity:1;}.a6izo4zJpcolor {fill:#FFFFFF;fill-opacity:1;}.ac_ASkf4g2fillColor {fill:#FFFFFF;fill-opacity:1;}.ac_ASkf4g2strokeColor-str {stroke:#D9D9D9;stroke-opacity:1;}.aD1IpQdt28fillColor {fill:#FFFFFF;fill-opacity:1;}.aD1IpQdt28strokeColor-str {stroke:#D9D9D9;stroke-opacity:1;}.aD6z1nYkhcolor {fill:#FFFFFF;fill-opacity:1;}.aId-S6AjgsfillColor {fill:#FFFFFF;fill-opacity:1;}.aId-S6AjgsstrokeColor-str {stroke:#D9D9D9;stroke-opacity:1;}.aiZJSDZokDfillColor {fill:#FFFFFF;fill-opacity:1;}.aiZJSDZokDstrokeColor-str {stroke:#D9D9D9;stroke-opacity:1;}.amY1YG-mPhfillColor {fill:#FFFFFF;fill-opacity:1;}.amY1YG-mPhstrokeColor-str {stroke:#D9D9D9;stroke-opacity:1;}.aRM3OUTj7TfillColor {fill:#FFFFFF;fill-opacity:1;}.aRM3OUTj7TstrokeColor-str {stroke:#D9D9D9;stroke-opacity:1;}.at1e5ii3ybfillColor {fill:#FFFFFF;fill-opacity:1;}.at1e5ii3ybstrokeColor-str {stroke:#D9D9D9;stroke-opacity:1;}.aTrALD62uRfillColor {fill:#FFFFFF;fill-opacity:1;}.aTrALD62uRstrokeColor-str {stroke:#D9D9D9;stroke-opacity:1;}.aVPVaPL77GfillColor {fill:#FFFFFF;fill-opacity:1;}.aVPVaPL77GstrokeColor-str {stroke:#D9D9D9;stroke-opacity:1;}.awd8r-A2KhfillColor {fill:#FFFFFF;fill-opacity:1;}.awd8r-A2KhstrokeColor-str {stroke:#D9D9D9;stroke-opacity:1;}.aWiaPLUZryfillColor {fill:#FFFFFF;fill-opacity:1;}.aWiaPLUZrystrokeColor-str {stroke:#D9D9D9;stroke-opacity:1;}</style><g opacity="1" transform="rotate(0 505.6301 443.482)">
<svg width="211.2791" height="20.8305" x="505.6301" y="443.482" version="1.1" preserveAspectRatio="none" viewBox="2.36 -31 395.15999999999997 38.96">
  <g transform="matrix(1 0 0 1 0 0)" class="a6izo4zJpcolor"><path d="M26.84-2.48Q25.52-1.44 22.70-0.56Q19.88 0.32 17.48 0.32L17.48 0.32Q12.96 0.32 9.52-1.54Q6.08-3.40 4.22-6.64Q2.36-9.88 2.36-13.92L2.36-13.92Q2.36-18.64 4.36-22.10Q6.36-25.56 9.76-27.40Q13.16-29.24 17.20-29.24L17.20-29.24Q19.64-29.24 21.80-28.66Q23.96-28.08 25.68-27.12L25.68-27.12L24.40-23.56Q23.12-24.28 21.18-24.82Q19.24-25.36 17.68-25.36L17.68-25.36Q14.32-25.36 11.74-24Q9.16-22.64 7.76-20.12Q6.36-17.60 6.36-14.24L6.36-14.24Q6.36-11.12 7.76-8.68Q9.16-6.24 11.72-4.90Q14.28-3.56 17.56-3.56L17.56-3.56Q19.08-3.56 20.52-3.86Q21.96-4.16 22.92-4.72L22.92-4.72L22.92-10.44L17.16-10.44L17.16-14.16L26.84-14.16L26.84-2.48Z M53-16.56L56.72-16.56L56.72 0L53.36 0L53.12-3.16Q52.28-1.48 50.52-0.42Q48.76 0.64 46.60 0.64L46.60 0.64Q44.32 0.64 42.86-0.74Q41.40-2.12 41.32-4.32L41.32-4.32L41.32-16.56L45.04-16.56L45.04-5.64Q45.12-4.24 45.86-3.42Q46.60-2.60 48.08-2.56L48.08-2.56Q49.44-2.56 50.56-3.38Q51.68-4.20 52.34-5.64Q53-7.08 53-8.84L53-8.84L53-16.56Z M71.20-16.56L74.92-16.56L74.92 0L71.20 0L71.20-16.56ZM70.92-22.52Q70.92-23.40 71.60-24Q72.28-24.60 73.16-24.60L73.16-24.60Q74.04-24.60 74.70-24Q75.36-23.40 75.36-22.52L75.36-22.52Q75.36-21.64 74.70-21.04Q74.04-20.44 73.16-20.44L73.16-20.44Q72.28-20.44 71.60-21.04Q70.92-21.64 70.92-22.52L70.92-22.52Z M91-23.84L94.76-23.84L94.76-16.52L99.28-16.52L99.28-13.56L94.76-13.56L94.76 0L91 0L91-13.56L87.96-13.56L87.96-16.52L91-16.52L91-23.84Z M125.36-16.56L128.80-16.56L128.80 0L125.08 0L125.08-2.72Q124.20-1.56 122.52-0.58Q120.84 0.40 118.72 0.40L118.72 0.40Q116.36 0.40 114.46-0.62Q112.56-1.64 111.46-3.60Q110.36-5.56 110.36-8.28L110.36-8.28Q110.36-11 111.50-13.02Q112.64-15.04 114.58-16.14Q116.52-17.24 118.88-17.24L118.88-17.24Q121-17.24 122.56-16.32Q124.12-15.40 125.08-13.92L125.08-13.92L125.36-16.56ZM119.72-2.68Q121.76-2.68 123.22-3.82Q124.68-4.96 125.08-6.92L125.08-6.92L125.08-10.20Q124.60-11.96 123.08-13.06Q121.56-14.16 119.60-14.16L119.60-14.16Q118.12-14.16 116.86-13.44Q115.60-12.72 114.86-11.42Q114.12-10.12 114.12-8.48L114.12-8.48Q114.12-6.88 114.88-5.56Q115.64-4.24 116.92-3.46Q118.20-2.68 119.72-2.68L119.72-2.68Z M146.88-12.64Q147.52-14 148.70-15.04Q149.88-16.08 151.20-16.64Q152.52-17.20 153.52-17.24L153.52-17.24L153.36-13.52Q151.56-13.60 150.10-12.80Q148.64-12 147.82-10.58Q147-9.16 147-7.56L147-7.56L147 0L143.28 0L143.28-16.56L146.60-16.56L146.88-12.64Z M206.04 0L203.04-7.60L191.92-7.60L188.84 0L185.00 0L197.64-30.12L197.88-30.12L210.52 0L206.04 0ZM193.32-10.96L201.72-10.96L197.60-21.52L193.32-10.96Z M236.04-1.56Q234.92-0.64 233.38-0.12Q231.84 0.40 230.24 0.40L230.24 0.40Q227.56 0.40 225.50-0.68Q223.44-1.76 222.30-3.74Q221.16-5.72 221.16-8.32L221.16-8.32Q221.16-10.88 222.36-12.86Q223.56-14.84 225.56-15.92Q227.56-17 229.88-17L229.88-17Q233.68-17 236.16-14.92L236.16-14.92L234.28-12.48Q233.48-13.08 232.44-13.50Q231.40-13.92 230.20-13.92L230.20-13.92Q228.72-13.92 227.50-13.18Q226.28-12.44 225.58-11.16Q224.88-9.88 224.88-8.32L224.88-8.32Q224.88-6.76 225.62-5.48Q226.36-4.20 227.64-3.44Q228.92-2.68 230.56-2.68L230.56-2.68Q232.60-2.68 234.12-3.88L234.12-3.88L236.04-1.56Z M262.40-16.56L265.84-16.56L265.84 0L262.12 0L262.12-2.72Q261.24-1.56 259.56-0.58Q257.88 0.40 255.76 0.40L255.76 0.40Q253.40 0.40 251.50-0.62Q249.60-1.64 248.50-3.60Q247.40-5.56 247.40-8.28L247.40-8.28Q247.40-11 248.54-13.02Q249.68-15.04 251.62-16.14Q253.56-17.24 255.92-17.24L255.92-17.24Q258.04-17.24 259.60-16.32Q261.16-15.40 262.12-13.92L262.12-13.92L262.40-16.56ZM256.76-2.68Q258.80-2.68 260.26-3.82Q261.72-4.96 262.12-6.92L262.12-6.92L262.12-10.20Q261.64-11.96 260.12-13.06Q258.60-14.16 256.64-14.16L256.64-14.16Q255.16-14.16 253.90-13.44Q252.64-12.72 251.90-11.42Q251.16-10.12 251.16-8.48L251.16-8.48Q251.16-6.88 251.92-5.56Q252.68-4.24 253.96-3.46Q255.24-2.68 256.76-2.68L256.76-2.68Z M293.88-31L297.60-31L297.60 0L293.84 0L293.84-2.60Q292.64-1.20 290.90-0.40Q289.16 0.40 287.08 0.40L287.08 0.40Q284.76 0.40 282.88-0.72Q281-1.84 279.94-3.86Q278.88-5.88 278.88-8.52L278.88-8.52Q278.88-11.20 280-13.18Q281.12-15.16 283.08-16.20Q285.04-17.24 287.52-17.24L287.52-17.24Q289.40-17.24 291.14-16.46Q292.88-15.68 293.88-14.32L293.88-14.32L293.88-31ZM288.24-2.80Q290.40-2.80 291.90-3.96Q293.40-5.12 293.84-7.08L293.84-7.08L293.84-10.20Q293.36-12 291.80-13.14Q290.24-14.28 288.24-14.28L288.24-14.28Q286.72-14.28 285.44-13.54Q284.16-12.80 283.40-11.50Q282.64-10.20 282.64-8.56L282.64-8.56Q282.64-6.96 283.40-5.64Q284.16-4.32 285.44-3.56Q286.72-2.80 288.24-2.80L288.24-2.80Z M319.80-2.80Q321.88-2.80 323.84-4.24L323.84-4.24L325.56-1.48Q324.24-0.60 322.70-0.10Q321.16 0.40 319.72 0.40L319.72 0.40Q316.96 0.40 314.90-0.74Q312.84-1.88 311.72-3.88Q310.60-5.88 310.60-8.40L310.60-8.40Q310.60-10.84 311.82-12.86Q313.04-14.88 315.16-16.06Q317.28-17.24 319.80-17.24L319.80-17.24Q323.04-17.24 325.22-15.34Q327.40-13.44 328.20-10.04L328.20-10.04L315.08-5.44Q315.80-4.20 317.02-3.50Q318.24-2.80 319.80-2.80L319.80-2.80ZM319.52-14.28Q317.24-14.28 315.76-12.68Q314.28-11.08 314.28-8.60L314.28-8.60Q314.28-8 314.32-7.68L314.32-7.68L323.96-11.24Q323.36-12.60 322.26-13.44Q321.16-14.28 319.52-14.28L319.52-14.28Z M362.08-17.24Q364.48-17.24 365.90-15.88Q367.32-14.52 367.40-12.28L367.40-12.28L367.40 0L363.68 0L363.68-10.92Q363.56-13.84 361.04-14L361.04-14Q359.60-14 358.46-13.14Q357.32-12.28 356.68-10.88Q356.04-9.48 356.00-7.88L356.00-7.88L356.00 0L352.24 0L352.24-10.92Q352.12-13.84 349.52-14L349.52-14Q348.12-14 346.98-13.14Q345.84-12.28 345.20-10.86Q344.56-9.44 344.56-7.84L344.56-7.84L344.56 0L340.84 0L340.84-16.56L344.20-16.56L344.48-13.44Q345.44-15.24 347.10-16.24Q348.76-17.24 350.88-17.24L350.88-17.24Q352.88-17.24 354.24-16.30Q355.60-15.36 356.00-13.72L356.00-13.72Q357.04-15.36 358.64-16.30Q360.24-17.24 362.08-17.24L362.08-17.24Z M394.08-16.56L397.52-16.56L386.84 7.96L383.16 7.96L386.96-0.56L379.28-16.56L383.48-16.56L388.84-4.76L394.08-16.56Z"/></g>
</svg>
</g><g opacity="1" transform="rotate(0 483.6673 319.4874)">
<svg width="278.1121" height="109.6343" x="483.6673" y="319.4874" version="1.1" preserveAspectRatio="none" viewBox="1.12 -28.32 71.84 28.32">
  <g transform="matrix(1 0 0 1 0 0)" class="aD6z1nYkhcolor"><path d="M14.44-28.32Q22.72-28.32 26.84-24.78Q30.96-21.24 30.96-14.48L30.96-14.48Q30.96-10.12 28.94-6.86Q26.92-3.60 23.12-1.80Q19.32 0 14.08 0L14.08 0L11.60-0.04Q9.20-0.12 8.08-0.12L8.08-0.12Q3.40-0.12 1.12 0L1.12 0L1.12-0.80Q2.40-0.88 2.98-1.12Q3.56-1.36 3.76-2.04Q3.96-2.72 3.96-4.24L3.96-4.24L3.96-24.08Q3.96-25.60 3.74-26.28Q3.52-26.96 2.96-27.20Q2.40-27.44 1.12-27.52L1.12-27.52L1.12-28.32Q2.96-28.20 6.56-28.20L6.56-28.20L8-28.20L9.76-28.24Q13.12-28.32 14.44-28.32L14.44-28.32ZM15.04-27.60Q13.80-27.60 13.18-27.32Q12.56-27.04 12.32-26.32Q12.08-25.60 12.08-24.16L12.08-24.16L12.08-4.16Q12.08-2.72 12.32-2Q12.56-1.28 13.18-1Q13.80-0.72 15.08-0.72L15.08-0.72Q19.04-0.72 20.80-4.14Q22.56-7.56 22.56-14.32L22.56-14.32Q22.56-21.08 20.74-24.34Q18.92-27.60 15.04-27.60L15.04-27.60Z M69.88-28.20Q71.76-28.20 72.96-28.32L72.96-28.32L72.96-27.52Q70.60-26.36 69.24-21.92L69.24-21.92L62.52 0Q61.24-0.08 60.40-0.08L60.40-0.08Q59.60-0.08 58.32 0L58.32 0L53.12-15.88L47.48 0Q46.20-0.08 45.36-0.08L45.36-0.08Q44.56-0.08 43.28 0L43.28 0L34.00-24.96Q33.52-26.24 32.88-26.86Q32.24-27.48 31.64-27.52L31.64-27.52L31.64-28.32Q34.52-28.20 38.72-28.20L38.72-28.20Q42.36-28.20 44.04-28.32L44.04-28.32L44.04-27.52Q42.96-27.32 42.96-25.92L42.96-25.92Q42.96-25.08 43.32-24.16L43.32-24.16L49.12-7.84L52.64-17.36L49.92-25.64Q49.60-26.64 49.12-27.04Q48.64-27.44 47.88-27.52L47.88-27.52L47.88-28.32Q50.56-28.20 54.80-28.20L54.80-28.20Q58.96-28.20 61-28.32L61-28.32L61-27.52Q59.56-27.48 58.92-27.16Q58.28-26.84 58.28-26L58.28-26Q58.28-25.24 58.68-24.16L58.68-24.16L63.96-8.12L67.04-18Q68.12-21.56 68.12-23.60L68.12-23.60Q68.12-25.60 67.22-26.52Q66.32-27.44 64.64-27.52L64.64-27.52L64.64-28.32Q67.64-28.20 69.88-28.20L69.88-28.20Z"/></g>
</svg>
</g><g opacity="1" transform="rotate(90 479.6053 382.4093)">
<svg width="3.2155" height="143.6092" x="479.6053" y="382.4093" version="1.1" preserveAspectRatio="none" viewBox="0 0 3.2155 143.6092">
  <rect x="0" y="0" width="3.2155" height="143.6092" class="awd8r-A2KhfillColor awd8r-A2KhstrokeColor-str" style="stroke-width:0;" rx="0px" ry="0px" />
</svg>
</g><g opacity="1" transform="rotate(90 909.9482 401.8437)">
<svg width="3.2152" height="143.6225" x="909.9482" y="401.8437" version="1.1" preserveAspectRatio="none" viewBox="0 0 3.2152 143.6225">
  <rect x="0" y="0" width="3.2152" height="143.6225" class="aWiaPLUZryfillColor aWiaPLUZrystrokeColor-str" style="stroke-width:0;" rx="0px" ry="0px" />
</svg>
</g><g opacity="1" transform="rotate(90 479.6673 401.8437)">
<svg width="3.2165" height="143.6716" x="479.6673" y="401.8437" version="1.1" preserveAspectRatio="none" viewBox="0 0 3.2165 143.6716">
  <rect x="0" y="0" width="3.2165" height="143.6716" class="ac_ASkf4g2fillColor ac_ASkf4g2strokeColor-str" style="stroke-width:0;" rx="0px" ry="0px" />
</svg>
</g><g opacity="1" transform="rotate(90 479.6048 421.8402)">
<svg width="3.2165" height="143.6091" x="479.6048" y="421.8402" version="1.1" preserveAspectRatio="none" viewBox="0 0 3.2165 143.6091">
  <rect x="0" y="0" width="3.2165" height="143.6091" class="aTrALD62uRfillColor aTrALD62uRstrokeColor-str" style="stroke-width:0;" rx="0px" ry="0px" />
</svg>
</g><g opacity="1" transform="rotate(90 479.6048 363.6793)">
<svg width="3.2165" height="143.6092" x="479.6048" y="363.6793" version="1.1" preserveAspectRatio="none" viewBox="0 0 3.2165 143.6092">
  <rect x="0" y="0" width="3.2165" height="143.6092" class="aVPVaPL77GfillColor aVPVaPL77GstrokeColor-str" style="stroke-width:0;" rx="0px" ry="0px" />
</svg>
</g><g opacity="1" transform="rotate(90 479.6048 342.8475)">
<svg width="3.2165" height="143.6091" x="479.6048" y="342.8475" version="1.1" preserveAspectRatio="none" viewBox="0 0 3.2165 143.6091">
  <rect x="0" y="0" width="3.2165" height="143.6091" class="at1e5ii3ybfillColor at1e5ii3ybstrokeColor-str" style="stroke-width:0;" rx="0px" ry="0px" />
</svg>
</g><g opacity="1" transform="rotate(90 909.8877 324.4874)">
<svg width="3.2" height="143.5551" x="909.8877" y="324.4874" version="1.1" preserveAspectRatio="none" viewBox="0 0 3.2 143.5551">
  <rect x="0" y="0" width="3.2" height="143.5551" class="amY1YG-mPhfillColor amY1YG-mPhstrokeColor-str" style="stroke-width:0;" rx="0px" ry="0px" />
</svg>
</g><g opacity="1" transform="rotate(90 479.6048 324.4874)">
<svg width="3.2164" height="143.6087" x="479.6048" y="324.4874" version="1.1" preserveAspectRatio="none" viewBox="0 0 3.2164 143.6087">
  <rect x="0" y="0" width="3.2164" height="143.6087" class="aD1IpQdt28fillColor aD1IpQdt28strokeColor-str" style="stroke-width:0;" rx="0px" ry="0px" />
</svg>
</g><g opacity="1" transform="rotate(90 909.9203 363.6803)">
<svg width="3.2155" height="143.5668" x="909.9203" y="363.6803" version="1.1" preserveAspectRatio="none" viewBox="0 0 3.2155 143.5668">
  <rect x="0" y="0" width="3.2155" height="143.5668" class="aiZJSDZokDfillColor aiZJSDZokDstrokeColor-str" style="stroke-width:0;" rx="0px" ry="0px" />
</svg>
</g><g opacity="1" transform="rotate(90 909.9413 382.4093)">
<svg width="3.2164" height="143.6087" x="909.9413" y="382.4093" version="1.1" preserveAspectRatio="none" viewBox="0 0 3.2164 143.6087">
  <rect x="0" y="0" width="3.2164" height="143.6087" class="a5f1Tdx9g9fillColor a5f1Tdx9g9strokeColor-str" style="stroke-width:0;" rx="0px" ry="0px" />
</svg>
</g><g opacity="1" transform="rotate(90 909.9482 421.8415)">
<svg width="3.2152" height="143.6225" x="909.9482" y="421.8415" version="1.1" preserveAspectRatio="none" viewBox="0 0 3.2152 143.6225">
  <rect x="0" y="0" width="3.2152" height="143.6225" class="aRM3OUTj7TfillColor aRM3OUTj7TstrokeColor-str" style="stroke-width:0;" rx="0px" ry="0px" />
</svg>
</g><g opacity="1" transform="rotate(90 909.9622 342.8475)">
<svg width="3.2164" height="143.6087" x="909.9622" y="342.8475" version="1.1" preserveAspectRatio="none" viewBox="0 0 3.2164 143.6087">
  <rect x="0" y="0" width="3.2164" height="143.6087" class="aId-S6AjgsfillColor aId-S6AjgsstrokeColor-str" style="stroke-width:0;" rx="0px" ry="0px" />
</svg>
</g></svg>